{"title":"Le.Beau.Serge.1958.720p.BluRay.x264-CiNEFiLE.mkv","uid":6664177,"size":4692880957,"categoryP":"video","categoryS":"hd___movies","magnet":"?xt=urn:btih:c48f859090ba115b646b8da9a33f8f7b41f8ed9f&amp;dn=Le.Beau.Serge.1958.720p.BluRay.x264-CiNEFiLE.mkv&amp;tr=udp%3A%2F%2Ftracker.openbittorrent.com%3A80&amp;tr=udp%3A%2F%2Fopen.demonii.com%3A1337&amp;tr=udp%3A%2F%2Ftracker.coppersurfer.tk%3A6969&amp;tr=udp%3A%2F%2Fexodus.desync.com%3A6969","seeders":1,"leechers":0,"uploader":"mfccorrea","files":1,"time":1315624563,"description":"Le Beau Serge was the first film of French critic-turned-director Claude Chabrol. Though not a murder melodrama, the film is heavily influenced by the works of Chabrol's idol Alfred Hitchcock, Shadow of a Doubt in particular. Ailing city dweller Francois (Jean-Claude Brialy) makes a therapeutic return visit to his home town in the country. Here he visits childhood friend Serge (Gerard Blain), and is appalled to find how far Serge has plummeted into alcoholism and self-pity. The two protagonists indulge in a transference of personal guilt, then an &quot;exchange of redemption&quot; (to quote Chabrol chronicler Charles Derry). Highly influential in the French New Wave movement of the 1950s, Le Beau Serge has something very special to say about the care and nurturing of friendship, especially one that has dimmed with distance and time. Both male stars, as well as leading lady Bernadette Lafont, would continue working with director Chabrol for the remainder of his career.\n\n   General\n      Complete name :Le.Beau.Serge.1958.720p.BluRay.x264-CiNEFiLE.mkv\n      Format : Matroska\n      File size : 4.37 GiB\n      Duration : 1h 39mn\n      Overall bit rate : 6 293 Kbps\n      Encoded date : UTC 2011-09-08 01:32:44\n      Writing application : mkvmerge v4.9.1 ('Ich will') built on Jul 11 2011 23:53:15\n      Writing library : libebml v1.2.1 + libmatroska v1.1.1\n   Video #1\n      ID : 1\n      Format : AVC\n      Format/Info : Advanced Video Codec\n      Format profile : &lt;a class=&quot;__cf_email__&quot; href=&quot;/cdn-cgi/l/email-protection&quot; data-cfemail=&quot;88c0e1efe0c8c4bca6b9&quot;&gt;[email&amp;#160;protected]&lt;/a&gt;&lt;script data-cfhash='f9e31' type=&quot;text/javascript&quot;&gt;\n/* &lt;![CDATA[ */!function(){try{var t=&quot;currentScript&quot;in document?document.currentScript:function(){for(var t=document.getElementsByTagName(&quot;script&quot;),e=t.length;e--;)if(t[e].getAttribute(&quot;data-cfhash&quot;))return t[e]}();if(t&amp;&amp;t.previousSibling){var e,r,n,i,c=t.previousSibling,a=c.getAttribute(&quot;data-cfemail&quot;);if(a){for(e=&quot;&quot;,r=parseInt(a.substr(0,2),16),n=2;a.length-n;n+=2)i=parseInt(a.substr(n,2),16)^r,e+=String.fromCharCode(i);e=document.createTextNode(e),c.parentNode.replaceChild(e,c)}t.parentNode.removeChild(t);}}catch(u){}}()/* ]]&gt; */&lt;/script&gt;\n      Format settings, CABAC : Yes\n      Format settings, ReFrames : 5 frames\n      Muxing mode : Container profile=&lt;a class=&quot;__cf_email__&quot; href=&quot;/cdn-cgi/l/email-protection&quot; data-cfemail=&quot;89dce7e2e7e6fee7c9bda7b8&quot;&gt;[email&amp;#160;protected]&lt;/a&gt;&lt;script data-cfhash='f9e31' type=&quot;text/javascript&quot;&gt;\n/* &lt;![CDATA[ */!function(){try{var t=&quot;currentScript&quot;in document?document.currentScript:function(){for(var t=document.getElementsByTagName(&quot;script&quot;),e=t.length;e--;)if(t[e].getAttribute(&quot;data-cfhash&quot;))return t[e]}();if(t&amp;&amp;t.previousSibling){var e,r,n,i,c=t.previousSibling,a=c.getAttribute(&quot;data-cfemail&quot;);if(a){for(e=&quot;&quot;,r=parseInt(a.substr(0,2),16),n=2;a.length-n;n+=2)i=parseInt(a.substr(n,2),16)^r,e+=String.fromCharCode(i);e=document.createTextNode(e),c.parentNode.replaceChild(e,c)}t.parentNode.removeChild(t);}}catch(u){}}()/* ]]&gt; */&lt;/script&gt;\n      Codec ID : V_MPEG4/ISO/AVC\n      Duration : 1h 39mn\n      Bit rate : 5 528 Kbps\n      Nominal bit rate : 5 652 Kbps\n      Width : 960 pixels\n      Height : 720 pixels\n      Display aspect ratio : 4:3\n      Frame rate : 23.976 fps\n      Resolution : 24 bits\n      Colorimetry : 4:2:0\n      Scan type : Progressive\n      Bits/(Pixel*Frame) : 0.334\n      Stream size : 3.84 GiB (88%)\n      Writing library : x264 core 116 r2074 2641b9e   \n   Audio #2\n      ID : 2\n      Format : AC-3\n      Format/Info : Audio Coding 3\n      Codec ID : A_AC3\n      Duration : 1h 39mn\n      Bit rate mode : Constant\n      Bit rate : 640 Kbps\n      Channel(s) : 1 channel\n      Channel positions : C\n      Sampling rate : 48.0 KHz\n      Stream size : 455 MiB (10%)\n      Language : French\n   Text #3\n      ID : 3\n      Format : UTF-8\n      Codec ID : S_TEXT/UTF8\n      Codec ID/Info : UTF-8 Plain Text\n &lt;a href=&quot;\nhttp://www.imdb.com/title/tt0051404/&quot; rel=&quot;nofollow&quot; target=&quot;_NEW&quot;&gt;\nhttp://www.imdb.com/title/tt0051404/&lt;/a&gt;\n\nFrench audio; English subtitles in the mkv","torrent":{"xt":"urn:btih:c48f859090ba115b646b8da9a33f8f7b41f8ed9f","amp;dn":"Le.Beau.Serge.1958.720p.BluRay.x264-CiNEFiLE.mkv","amp;tr":["udp%3A%2F%2Ftracker.openbittorrent.com%3A80","udp%3A%2F%2Fopen.demonii.com%3A1337","udp%3A%2F%2Ftracker.coppersurfer.tk%3A6969","udp%3A%2F%2Fexodus.desync.com%3A6969"],"infoHash":"c48f859090ba115b646b8da9a33f8f7b41f8ed9f","infoHashBuffer":{"type":"Buffer","data":[196,143,133,144,144,186,17,91,100,107,141,169,163,63,143,123,65,248,237,159]},"announce":[],"urlList":[]}}